<?xml version="1.0" encoding="UTF-8" standalone="no"?>
<!-- Created with Inkscape (http://www.inkscape.org/) -->

<svg
   xmlns:dc="http://purl.org/dc/elements/1.1/"
   xmlns:cc="http://creativecommons.org/ns#"
   xmlns:rdf="http://www.w3.org/1999/02/22-rdf-syntax-ns#"
   xmlns:svg="http://www.w3.org/2000/svg"
   xmlns="http://www.w3.org/2000/svg"
   xmlns:sodipodi="http://sodipodi.sourceforge.net/DTD/sodipodi-0.dtd"
   xmlns:inkscape="http://www.inkscape.org/namespaces/inkscape"
   version="1.1"
   id="svg869"
   width="911.3924"
   height="911.3924"
   viewBox="0 0 911.3924 911.3924"
   sodipodi:docname="Appicon_small_play.svg"
   inkscape:version="0.92.4 5da689c313, 2019-01-14">
  <metadata
     id="metadata875">
    <rdf:RDF>
      <cc:Work
         rdf:about="">
        <dc:format>image/svg+xml</dc:format>
        <dc:type
           rdf:resource="http://purl.org/dc/dcmitype/StillImage" />
        <dc:title />
      </cc:Work>
    </rdf:RDF>
  </metadata>
  <defs
     id="defs873" />
  <sodipodi:namedview
     pagecolor="#ffffff"
     bordercolor="#666666"
     borderopacity="1"
     objecttolerance="10"
     gridtolerance="10"
     guidetolerance="10"
     inkscape:pageopacity="0"
     inkscape:pageshadow="2"
     inkscape:window-width="1280"
     inkscape:window-height="1024"
     id="namedview871"
     showgrid="false"
     inkscape:zoom="0.45589584"
     inkscape:cx="437.19532"
     inkscape:cy="590.01363"
     inkscape:window-x="0"
     inkscape:window-y="28"
     inkscape:window-maximized="0"
     inkscape:current-layer="g897" />
  <path
     style="fill:#000000;stroke-width:0.60759491"
     d=""
     id="path883"
     inkscape:connector-curvature="0" />
  <g
     id="g897"
     transform="translate(-13.959243,54.285947)"
     style="fill:#2b2b2b;fill-opacity:1">
    <path
       style="fill:#2b2b2b;fill-opacity:1;stroke:none;stroke-width:2.89829111;stroke-miterlimit:4;stroke-dasharray:none;stroke-dashoffset:0;stroke-opacity:1"
       d="m 469.65545,-32.203481 c -115.57027,3e-5 -226.40708,45.910155 -308.1276,127.630679 C 79.807325,177.14772 33.897201,287.98453 33.897172,403.5548 c 0.177822,139.31028 66.952968,270.13841 179.667058,352.00978 47.86988,-11.41054 134.39106,-29.63376 171.71447,-35.70967 48.00544,-7.81483 179.74129,-15.62945 179.74129,-15.62945 0,0 -11.16498,-14.51508 -59.91465,-32.37756 -48.74969,-17.86247 -149.22622,-29.3972 -179.74128,-31.63001 -30.51506,-2.2328 -51.72644,-6.32697 -75.9152,-5.5827 -24.18876,0.74427 -49.49435,5.20887 -51.35503,0.37112 -1.86068,-4.83776 31.26026,-22.69979 59.91465,-31.25889 28.65438,-8.55911 131.73418,-21.58271 174.52969,-25.67619 42.79552,-4.09349 97.50113,-7.81472 97.50113,-7.81472 0,0 -26.7938,-14.88512 -92.28956,-28.28198 -65.49575,-13.39687 -87.0814,-13.39727 -119.82927,-16.37433 -32.74788,-2.97709 -10.79208,-10.42041 2.97691,-18.23524 13.76899,-7.81483 58.23967,-32.23554 97.71055,-41.70856 39.47086,-9.47302 86.30919,-17.36842 86.30919,-17.36842 0,0 -29.47192,-0.52601 -56.31211,-9.99902 -26.84019,-9.47301 -52.10257,-14.20858 -52.10257,-14.20858 l -2.10478,-6.84187 -0.52487,-9.47416 -140.51656,-120.51585 -7.10431,-8.94664 -6.18444,-13.68372 -1.84234,-16.05093 4.07967,-15.52606 7.62916,-12.1038 10.30652,-9.04738 12.83811,-5.39714 14.69898,-2.23202 15.25833,2.79135 10.04675,5.02337 9.11894,6.69871 133.64024,115.7072 8.41911,-1.05239 10.52655,-0.39496 9.20908,0.78995 10.394,2.23466 8.0268,2.76485 6.84185,3.94711 212.42899,-166.97739 10.79162,-4.28114 10.79164,-0.18556 10.97719,3.53625 7.25805,5.76825 5.3945,7.62917 2.79135,8.18585 -0.18557,12.09319 -1.86091,7.62918 -4.27848,6.69869 -5.5827,5.39716 -208.95371,164.85407 1.74162,6.88426 0.91985,8.94664 c 353.92104,-5.39448 0,0 353.92104,-5.39448 C 905.41368,287.98453 859.50356,177.14773 777.78304,95.427204 696.06252,13.706681 585.22572,-32.203447 469.65545,-32.203481 Z"
       id="path815"
       inkscape:connector-curvature="0"
       sodipodi:nodetypes="ssccscsssssscsssscscccccccccccccccccccccccccccccccccccccss" />
    <path
       style="fill:#2b2b2b;fill-opacity:1;stroke:none;stroke-width:1.14221144px;stroke-linecap:butt;stroke-linejoin:miter;stroke-opacity:1"
       d="M 576.49549,424.7919 V 782.65526 L 893.61203,600.73615 Z"
       id="path4519"
       inkscape:connector-curvature="0"
       sodipodi:nodetypes="cccc" />
  </g>
</svg>
